<svg width="512" height="512" xmlns="http://www.w3.org/2000/svg" xmlns:xlink="http://www.w3.org/1999/xlink"><defs><radialGradient cx="50.02%" cy="49.987%" fx="50.02%" fy="49.987%" r="49.998%" gradientTransform="matrix(1 0 0 .77004 0 .115)" id="c"><stop stop-color="#7BA7F2" stop-opacity=".5" offset="0%"/><stop stop-color="#7BA7F2" stop-opacity="0" offset="100%"/></radialGradient><radialGradient cx="49.991%" cy="49.991%" fx="49.991%" fy="49.991%" r="70.809%" gradientTransform="matrix(.706 0 0 1 .147 0)" id="f"><stop stop-color="#7BA7F2" offset="20%"/><stop stop-color="#7BA7F2" stop-opacity="0" offset="100%"/></radialGradient><radialGradient cx="49.994%" cy="50.016%" fx="49.994%" fy="50.016%" r="50.118%" gradientTransform="matrix(.99742 0 0 1 .001 0)" id="i"><stop stop-color="#7BA7F2" offset="0%"/><stop stop-color="#7BA7F2" stop-opacity="0" offset="100%"/></radialGradient><path d="M159.446 43.63C158.814 15.174 138.616.127 113.872.127c-13.572 0-25.817 4.533-34.15 13.347C71.392 4.66 59.146.126 45.575.126 20.83.126.63 15.236 0 43.694v65.099c0 5.981 4.86 10.766 10.794 10.766H21.02a1.83 1.83 0 0 0 1.83-1.826V43.82c.442-14.04 10.415-21.47 22.724-21.47 12.309 0 22.282 7.43 22.724 21.47v64.91c0 5.981 4.86 10.766 10.794 10.766h10.225a1.83 1.83 0 0 0 1.83-1.825V43.757c.443-14.04 10.416-21.47 22.725-21.47 12.308 0 22.282 7.43 22.723 21.47v64.91c0 5.981 4.86 10.766 10.794 10.766h10.226a1.83 1.83 0 0 0 1.83-1.825V43.694c.064.063 0 0 0-.063ZM389.65 1.953h-17.359c-4.797 0-9.279 2.392-11.993 6.359L341.11 36.642c-2.525 3.715-7.953 3.715-10.478 0l-19.19-28.331c-2.65-3.967-7.195-6.36-11.992-6.36H282.09c-1.073 0-1.704 1.197-1.136 2.078l34.212 50.62a10.816 10.816 0 0 1 0 12.088l-34.212 50.619c-.631.881.063 2.077 1.136 2.077h17.359c4.797 0 9.278-2.392 11.993-6.358l19.189-28.332c2.525-3.715 7.953-3.715 10.478 0l19.189 28.332c2.651 3.966 7.196 6.358 11.993 6.358h17.359c1.073 0 1.704-1.196 1.136-2.077L356.512 66.8a10.816 10.816 0 0 1 0-12.089l34.212-50.619c.63-.881 0-2.14-1.073-2.14Zm-116.523 0h-10.226c-5.176 0-9.531 3.651-10.604 8.5C243.208 3.525 231.783 0 219.474 0c-29.92 0-54.221 20.776-54.221 60 0 39.224 24.239 60 54.221 60 12.246 0 23.545-3.463 32.634-10.262.505 5.477 5.113 9.821 10.794 9.821h10.226a1.83 1.83 0 0 0 1.83-1.826V3.778c-.063-1.008-.82-1.826-1.83-1.826Zm-53.654 95.76c-17.863 0-32.381-13.032-32.381-37.649s14.518-37.65 32.381-37.65c17.864 0 32.382 13.033 32.382 37.65 0 24.617-14.518 37.65-32.382 37.65Z" id="b"/><path d="M159.446 43.63C158.814 15.174 138.616.127 113.872.127c-13.572 0-25.817 4.533-34.15 13.347C71.392 4.66 59.146.126 45.575.126 20.83.126.63 15.236 0 43.694v65.099c0 5.981 4.86 10.766 10.794 10.766H21.02a1.83 1.83 0 0 0 1.83-1.826V43.82c.442-14.04 10.415-21.47 22.724-21.47 12.309 0 22.282 7.43 22.724 21.47v64.91c0 5.981 4.86 10.766 10.794 10.766h10.225a1.83 1.83 0 0 0 1.83-1.825V43.757c.443-14.04 10.416-21.47 22.725-21.47 12.308 0 22.282 7.43 22.723 21.47v64.91c0 5.981 4.86 10.766 10.794 10.766h10.226a1.83 1.83 0 0 0 1.83-1.825V43.694c.064.063 0 0 0-.063ZM389.65 1.953h-17.359c-4.797 0-9.279 2.392-11.993 6.359L341.11 36.642c-2.525 3.715-7.953 3.715-10.478 0l-19.19-28.331c-2.65-3.967-7.195-6.36-11.992-6.36H282.09c-1.073 0-1.704 1.197-1.136 2.078l34.212 50.62a10.816 10.816 0 0 1 0 12.088l-34.212 50.619c-.631.881.063 2.077 1.136 2.077h17.359c4.797 0 9.278-2.392 11.993-6.358l19.189-28.332c2.525-3.715 7.953-3.715 10.478 0l19.189 28.332c2.651 3.966 7.196 6.358 11.993 6.358h17.359c1.073 0 1.704-1.196 1.136-2.077L356.512 66.8a10.816 10.816 0 0 1 0-12.089l34.212-50.619c.63-.881 0-2.14-1.073-2.14Zm-116.523 0h-10.226c-5.176 0-9.531 3.651-10.604 8.5C243.208 3.525 231.783 0 219.474 0c-29.92 0-54.221 20.776-54.221 60 0 39.224 24.239 60 54.221 60 12.246 0 23.545-3.463 32.634-10.262.505 5.477 5.113 9.821 10.794 9.821h10.226a1.83 1.83 0 0 0 1.83-1.826V3.778c-.063-1.008-.82-1.826-1.83-1.826Zm-53.654 95.76c-17.863 0-32.381-13.032-32.381-37.649s14.518-37.65 32.381-37.65c17.864 0 32.382 13.033 32.382 37.65 0 24.617-14.518 37.65-32.382 37.65Z" id="e"/><path d="M159.446 43.63C158.814 15.174 138.616.127 113.872.127c-13.572 0-25.817 4.533-34.15 13.347C71.392 4.66 59.146.126 45.575.126 20.83.126.63 15.236 0 43.694v65.099c0 5.981 4.86 10.766 10.794 10.766H21.02a1.83 1.83 0 0 0 1.83-1.826V43.82c.442-14.04 10.415-21.47 22.724-21.47 12.309 0 22.282 7.43 22.724 21.47v64.91c0 5.981 4.86 10.766 10.794 10.766h10.225a1.83 1.83 0 0 0 1.83-1.825V43.757c.443-14.04 10.416-21.47 22.725-21.47 12.308 0 22.282 7.43 22.723 21.47v64.91c0 5.981 4.86 10.766 10.794 10.766h10.226a1.83 1.83 0 0 0 1.83-1.825V43.694c.064.063 0 0 0-.063ZM389.65 1.953h-17.359c-4.797 0-9.279 2.392-11.993 6.359L341.11 36.642c-2.525 3.715-7.953 3.715-10.478 0l-19.19-28.331c-2.65-3.967-7.195-6.36-11.992-6.36H282.09c-1.073 0-1.704 1.197-1.136 2.078l34.212 50.62a10.816 10.816 0 0 1 0 12.088l-34.212 50.619c-.631.881.063 2.077 1.136 2.077h17.359c4.797 0 9.278-2.392 11.993-6.358l19.189-28.332c2.525-3.715 7.953-3.715 10.478 0l19.189 28.332c2.651 3.966 7.196 6.358 11.993 6.358h17.359c1.073 0 1.704-1.196 1.136-2.077L356.512 66.8a10.816 10.816 0 0 1 0-12.089l34.212-50.619c.63-.881 0-2.14-1.073-2.14Zm-116.523 0h-10.226c-5.176 0-9.531 3.651-10.604 8.5C243.208 3.525 231.783 0 219.474 0c-29.92 0-54.221 20.776-54.221 60 0 39.224 24.239 60 54.221 60 12.246 0 23.545-3.463 32.634-10.262.505 5.477 5.113 9.821 10.794 9.821h10.226a1.83 1.83 0 0 0 1.83-1.826V3.778c-.063-1.008-.82-1.826-1.83-1.826Zm-53.654 95.76c-17.863 0-32.381-13.032-32.381-37.649s14.518-37.65 32.381-37.65c17.864 0 32.382 13.033 32.382 37.65 0 24.617-14.518 37.65-32.382 37.65Z" id="h"/><linearGradient x1=".006%" y1="50.029%" x2="99.994%" y2="50.029%" id="a"><stop stop-color="#991EEB" offset="0%"/><stop stop-color="#5822B4" offset="39.9%"/><stop stop-color="#5822B4" offset="72.7%"/><stop stop-color="#991EEB" offset="100%"/></linearGradient></defs><g fill="none" fill-rule="evenodd"><path d="M0 0h512v512H0z" fill="#000"/><path d="M174.093 267.315h-43.439v-61.863h-28.102v61.863H58V107.738h44.466v59.553h28.103v-59.553h43.438v159.577h.086Zm199.113.685C417.673 268 454 231.036 454 186.03c0-45.692-36.327-81.03-80.794-81.03-45.066 0-67.856 32.686-73.34 46.034 0-19.766-19.79-43.382-42.752-43.382h-74.197v159.663h69.056c28.102 0 47.894-23.958 47.894-45.006C306.12 235.314 328.226 268 373.207 268ZM246.49 203.142c6.426 0 11.566 6.246 11.566 13.348 0 7.444-5.14 13.69-11.566 13.69h-22.105v-27.038h22.105Zm0-59.895c6.426 0 11.566 6.246 11.566 13.348s-5.14 13.348-11.566 13.348h-22.105v-26.696h22.105Zm29.216 42.782c5.14-.342 13.537-6.246 16.707-9.754-1.2 4.278-1.2 17.797 0 22.076-3.513-5.22-11.567-11.38-16.707-12.322Zm56.975 0c0-22.503 18.335-40.643 40.868-40.557 22.619.171 40.611 18.567 40.354 41.156-.343 22.247-18.335 40.13-40.61 40.13-22.448 0-40.612-18.14-40.612-40.729Zm40.525 32.001c17.307 0 31.872-14.203 31.872-32 0-17.798-14.565-31.83-31.872-31.83-17.82 0-32.043 14.032-32.043 31.83 0 17.797 14.223 32 32.043 32Z" fill="#FFF" fill-rule="nonzero"/><path d="M159.446 43.63C158.814 15.174 138.616.127 113.872.127c-13.572 0-25.817 4.533-34.15 13.347C71.392 4.66 59.146.126 45.575.126 20.83.126.63 15.236 0 43.694v65.099c0 5.981 4.86 10.766 10.794 10.766H21.02a1.83 1.83 0 0 0 1.83-1.826V43.82c.442-14.04 10.415-21.47 22.724-21.47 12.309 0 22.282 7.43 22.724 21.47v64.91c0 5.981 4.86 10.766 10.794 10.766h10.225a1.83 1.83 0 0 0 1.83-1.825V43.757c.443-14.04 10.416-21.47 22.725-21.47 12.308 0 22.282 7.43 22.723 21.47v64.91c0 5.981 4.86 10.766 10.794 10.766h10.226a1.83 1.83 0 0 0 1.83-1.825V43.694c.064.063 0 0 0-.063ZM389.65 1.953h-17.359c-4.797 0-9.279 2.392-11.993 6.359L341.11 36.642c-2.525 3.715-7.953 3.715-10.478 0l-19.19-28.331c-2.65-3.967-7.195-6.36-11.992-6.36H282.09c-1.073 0-1.704 1.197-1.136 2.078l34.212 50.62a10.816 10.816 0 0 1 0 12.088l-34.212 50.619c-.631.881.063 2.077 1.136 2.077h17.359c4.797 0 9.278-2.392 11.993-6.358l19.189-28.332c2.525-3.715 7.953-3.715 10.478 0l19.189 28.332c2.651 3.966 7.196 6.358 11.993 6.358h17.359c1.073 0 1.704-1.196 1.136-2.077L356.512 66.8a10.816 10.816 0 0 1 0-12.089l34.212-50.619c.63-.881 0-2.14-1.073-2.14Zm-116.523 0h-10.226c-5.176 0-9.531 3.651-10.604 8.5C243.208 3.525 231.783 0 219.474 0c-29.92 0-54.221 20.776-54.221 60 0 39.224 24.239 60 54.221 60 12.246 0 23.545-3.463 32.634-10.262.505 5.477 5.113 9.821 10.794 9.821h10.226a1.83 1.83 0 0 0 1.83-1.826V3.778c-.063-1.008-.82-1.826-1.83-1.826Zm-53.654 95.76c-17.863 0-32.381-13.032-32.381-37.649s14.518-37.65 32.381-37.65c17.864 0 32.382 13.033 32.382 37.65 0 24.617-14.518 37.65-32.382 37.65Z" fill="url(#a)" fill-rule="nonzero" transform="translate(58 287)"/><g transform="translate(58 287)"><mask id="d" fill="#fff"><use xlink:href="#b"/></mask><ellipse fill="url(#c)" fill-rule="nonzero" mask="url(#d)" cx="94.115" cy="37.964" rx="69.813" ry="90.661"/></g><g transform="translate(58 287)"><mask id="g" fill="#fff"><use xlink:href="#e"/></mask><ellipse fill="url(#f)" fill-rule="nonzero" mask="url(#g)" cx="163.675" cy="113.515" rx="143.665" ry="101.427"/></g><g transform="translate(58 287)"><mask id="j" fill="#fff"><use xlink:href="#h"/></mask><ellipse fill="url(#i)" fill-rule="nonzero" mask="url(#j)" cx="251.856" cy="6.863" rx="78.145" ry="77.943"/></g></g></svg>
